<svg width="15" height="15" viewBox="0 0 15 15" fill="none" xmlns="http://www.w3.org/2000/svg">
<path d="M9.375 11.9531C9.375 11.7648 9.35022 11.5822 9.30369 11.4082C9.9082 11.0361 10.3125 10.3682 10.3125 9.60938C10.3125 9.42105 10.2877 9.23848 10.2412 9.06445C10.8457 8.69238 11.25 8.02441 11.25 7.26562C11.25 7.18638 11.2457 7.10821 11.2371 7.03125H12.8906C14.0537 7.03125 15 6.08496 15 4.92188C15 3.75879 14.0537 2.8125 12.8906 2.8125H7.13965C6.66504 2.2415 5.95312 1.875 5.15625 1.875H3.69434C2.75449 1.875 1.88877 2.37598 1.43555 3.18164L0.51709 4.81934C0.178828 5.42285 0 6.10547 0 6.79102V9.95215C0 12.2197 1.89258 14.0625 4.21875 14.0625H7.26562C8.42871 14.0625 9.375 13.1162 9.375 11.9531ZM8.20312 8.90625C8.59072 8.90625 8.90625 9.22207 8.90625 9.60938C8.90625 9.99668 8.58984 10.3125 8.20312 10.3125H6.7998C6.41309 10.3125 6.09375 9.99609 6.09375 9.60938C6.09375 9.22266 6.41016 8.90625 6.79688 8.90625H8.20312ZM9.14062 6.5625C9.52822 6.5625 9.84375 6.87832 9.84375 7.26562C9.84375 7.65293 9.52734 7.96875 9.14062 7.96875H7.73438C7.64563 7.96875 7.56226 7.94821 7.48403 7.91807C7.6377 7.61426 7.73438 7.27734 7.73438 6.91406V6.5625H9.14062ZM12.8906 4.21875C13.2782 4.21875 13.5938 4.53457 13.5938 4.92188C13.5938 5.30918 13.2773 5.625 12.8906 5.625H7.73438V4.45312C7.73438 4.37443 7.71807 4.30028 7.71114 4.22344C7.71973 4.22461 7.72559 4.21875 7.73438 4.21875H12.8906ZM1.40625 9.95215V6.79102C1.40625 6.34424 1.52297 5.9001 1.74375 5.50547L2.66191 3.87129C2.86641 3.50684 3.26367 3.28125 3.69434 3.28125H5.15625C5.80254 3.28125 6.32812 3.80684 6.32812 4.45312V6.91406C6.32812 7.36641 5.96016 7.73438 5.50781 7.73438C5.05547 7.73438 4.6875 7.36523 4.6875 6.91406V5.39062C4.6875 5.00391 4.37402 4.6875 3.98438 4.6875C3.59473 4.6875 3.28125 5.00391 3.28125 5.39062V6.91406C3.28125 7.8876 3.91348 8.7085 4.78594 9.00996C4.72559 9.19922 4.6875 9.40137 4.6875 9.60938C4.6875 9.75706 4.72166 9.89754 4.75131 10.0389C4.02539 10.3711 3.51562 11.0771 3.51562 11.9531C3.51562 12.1782 3.56124 12.3908 3.62801 12.5938C2.36016 12.3311 1.40625 11.2471 1.40625 9.95215ZM5.625 12.6562C5.2374 12.6562 4.92188 12.3404 4.92188 11.9531C4.92188 11.5658 5.23828 11.25 5.625 11.25H7.26562C7.65322 11.25 7.96875 11.5658 7.96875 11.9531C7.96875 12.3404 7.65322 12.6562 7.26562 12.6562H5.625Z" fill="white"/>
</svg>
