<svg width="18" height="17" viewBox="0 0 18 17" fill="none" xmlns="http://www.w3.org/2000/svg">
<g clip-path="url(#clip0_14_174)">
<path d="M9.90316 0.597656C9.73753 0.232422 9.38753 0 9.00316 0C8.61878 0 8.2719 0.232422 8.10316 0.597656L6.09378 4.99043L1.60628 5.69434C1.23128 5.7541 0.918781 6.03301 0.803156 6.41484C0.687531 6.79668 0.78128 7.21836 1.05003 7.50059L4.30628 10.9238L3.53753 15.7615C3.47503 16.16 3.63128 16.565 3.94066 16.8008C4.25003 17.0365 4.65941 17.0664 4.99691 16.8771L9.00628 14.6027L13.0157 16.8771C13.3532 17.0664 13.7625 17.0398 14.0719 16.8008C14.3813 16.5617 14.5375 16.16 14.475 15.7615L13.7032 10.9238L16.9594 7.50059C17.2282 7.21836 17.325 6.79668 17.2063 6.41484C17.0875 6.03301 16.7782 5.7541 16.4032 5.69434L11.9125 4.99043L9.90316 0.597656Z" fill="#B5342A"/>
</g>
<defs>
<clipPath id="clip0_14_174">
<rect width="18" height="17" fill="white"/>
</clipPath>
</defs>
</svg>
