<svg width="28" height="25" viewBox="0 0 28 25" fill="none" xmlns="http://www.w3.org/2000/svg">
<g clip-path="url(#clip0_31_324)">
<path d="M8.77438 6.90918C10.6799 5.29785 13.2515 3.90625 16.3334 3.90625C19.4154 3.90625 21.9869 5.29785 23.8924 6.90918C25.7931 8.52051 27.1445 10.4443 27.8299 11.7822C28.0584 12.2314 28.0584 12.7637 27.8299 13.2129C27.1445 14.5508 25.7931 16.4746 23.8924 18.0859C21.9869 19.7021 19.4154 21.0938 16.3334 21.0938C13.2515 21.0938 10.6799 19.7021 8.77438 18.0908C7.98688 17.4219 7.29174 16.6992 6.69869 15.9863L2.33827 18.5352C1.73063 18.8916 0.957714 18.7939 0.45702 18.2959C-0.0436749 17.7979 -0.145758 17.0264 0.204242 16.4111L2.43063 12.5L0.204242 8.58887C-0.145758 7.97363 -0.0388137 7.20215 0.461881 6.7041C0.962575 6.20605 1.73063 6.1084 2.34313 6.46484L6.70355 9.01855C7.2966 8.30566 7.99174 7.58301 8.77924 6.91406L8.77438 6.90918ZM21.7779 12.5C21.7779 11.6357 21.0827 10.9375 20.2223 10.9375C19.3619 10.9375 18.6667 11.6357 18.6667 12.5C18.6667 13.3643 19.3619 14.0625 20.2223 14.0625C21.0827 14.0625 21.7779 13.3643 21.7779 12.5Z" fill="black"/>
</g>
<defs>
<clipPath id="clip0_31_324">
<rect width="28" height="25" fill="white"/>
</clipPath>
</defs>
</svg>
