<svg width="21" height="21" viewBox="0 0 21 21" fill="none" xmlns="http://www.w3.org/2000/svg">
<path d="M21 2.625C21 7.28437 17.5301 11.1357 13.0348 11.7305C12.7436 9.54023 11.7797 7.56328 10.3564 6.01699C11.9273 3.21152 14.9297 1.3125 18.375 1.3125H19.6875C20.4135 1.3125 21 1.89902 21 2.625ZM0 5.25C0 4.52402 0.586523 3.9375 1.3125 3.9375H2.625C7.69863 3.9375 11.8125 8.05137 11.8125 13.125V14.4375V18.375C11.8125 19.101 11.226 19.6875 10.5 19.6875C9.77402 19.6875 9.1875 19.101 9.1875 18.375V14.4375C4.11387 14.4375 0 10.3236 0 5.25Z" fill="black"/>
</svg>
