<svg width="20" height="20" viewBox="0 0 20 20" fill="none" xmlns="http://www.w3.org/2000/svg">
<g clip-path="url(#clip0_31_346)">
<path d="M6.25 10.3594C6.25 10.6914 6.11719 11.0078 5.88281 11.2422L4.83594 12.2891C4.35547 12.7695 3.56641 12.7344 2.90625 12.5703C2.72656 12.5234 2.53906 12.5 2.34375 12.5C1.05078 12.5 0 13.5508 0 14.8438C0 16.1367 1.05078 17.1875 2.34375 17.1875C2.58984 17.1875 2.8125 17.4102 2.8125 17.6562C2.8125 18.9492 3.86328 20 5.15625 20C6.44922 20 7.5 18.9492 7.5 17.6562C7.5 17.4609 7.47656 17.2734 7.42969 17.0898C7.26562 16.4297 7.22656 15.6406 7.71094 15.1602L8.75781 14.1133C8.99219 13.8789 9.30859 13.7461 9.64062 13.7461H13.125C13.3711 13.7461 13.6094 13.7344 13.8477 13.707C14.3125 13.6602 14.4883 13.1016 14.2695 12.6914C13.9375 12.0742 13.75 11.3711 13.75 10.6211C13.75 8.20312 15.707 6.24609 18.125 6.24609C18.4375 6.24609 18.7383 6.27734 19.0312 6.33984C19.4883 6.4375 19.9727 6.10938 19.8906 5.65234C19.3164 2.44141 16.5039 0 13.125 0C9.32812 0 6.25 3.07812 6.25 6.875V10.3594Z" fill="black"/>
</g>
<defs>
<clipPath id="clip0_31_346">
<rect width="20" height="20" fill="white"/>
</clipPath>
</defs>
</svg>
