<svg width="25" height="18" viewBox="0 0 25 18" fill="none" xmlns="http://www.w3.org/2000/svg">
<path d="M16.6667 1.38462C16.8186 1.38462 16.9705 1.38894 17.1181 1.3976C17.3003 1.41058 17.4826 1.42788 17.6649 1.45385C18.4288 0.566827 19.566 0 20.8333 0H22.2222L21.4063 3.24952C22.092 3.8899 22.6519 4.66875 23.0339 5.53846H23.6111C24.3793 5.53846 25 6.15721 25 6.92308V11.0769C25 11.8428 24.3793 12.4615 23.6111 12.4615H22.2222C21.8273 12.9851 21.3585 13.4524 20.8333 13.8462V16.6154C20.8333 17.3813 20.2127 18 19.4444 18H18.0556C17.2873 18 16.6667 17.3813 16.6667 16.6154V15.2308H11.1111V16.6154C11.1111 17.3813 10.4905 18 9.72222 18H8.33333C7.5651 18 6.94444 17.3813 6.94444 16.6154V13.8462C5.42969 12.7125 4.3967 10.9774 4.20139 9H2.95139C1.31944 9 0 7.68462 0 6.05769C0 4.43077 1.31944 3.11538 2.95139 3.11538H3.125C3.70226 3.11538 4.16667 3.57837 4.16667 4.15385C4.16667 4.72933 3.70226 5.19231 3.125 5.19231H2.95139C2.47396 5.19231 2.08333 5.58173 2.08333 6.05769C2.08333 6.53365 2.47396 6.92308 2.95139 6.92308H4.30556C4.83073 4.33558 6.8099 2.27163 9.3533 1.60962C9.91319 1.4625 10.5035 1.38462 11.1111 1.38462H16.6667ZM19.4444 7.26923C19.4444 6.69375 18.98 6.23077 18.4028 6.23077C17.8255 6.23077 17.3611 6.69375 17.3611 7.26923C17.3611 7.84471 17.8255 8.30769 18.4028 8.30769C18.98 8.30769 19.4444 7.84471 19.4444 7.26923Z" fill="black"/>
</svg>
